<svg xmlns="http://www.w3.org/2000/svg" xmlns:xlink="http://www.w3.org/1999/xlink" width="400" zoomAndPan="magnify" viewBox="0 0 300 299.999988" height="400" preserveAspectRatio="xMidYMid meet" version="1.0"><defs><clipPath id="2fa48b3de9"><path d="M 42.261719 73.777344 L 257.511719 73.777344 L 257.511719 226.027344 L 42.261719 226.027344 Z M 42.261719 73.777344 " clip-rule="nonzero"/></clipPath></defs><g clip-path="url(#2fa48b3de9)"><path fill="#fefefe" d="M 235.183594 136.542969 L 64.8125 136.542969 C 52.457031 136.542969 42.398438 146.605469 42.398438 158.960938 L 42.398438 221.730469 C 42.398438 224.207031 44.40625 226.214844 46.878906 226.214844 C 49.355469 226.214844 51.363281 224.207031 51.363281 221.730469 L 51.363281 208.28125 L 248.636719 208.28125 L 248.636719 221.730469 C 248.636719 224.207031 250.644531 226.214844 253.117188 226.214844 C 255.59375 226.214844 257.601562 224.207031 257.601562 221.730469 L 257.601562 158.960938 C 257.601562 146.605469 247.542969 136.542969 235.183594 136.542969 Z M 248.636719 199.3125 L 51.363281 199.3125 L 51.363281 190.347656 L 248.636719 190.347656 Z M 64.8125 127.578125 L 87.230469 127.578125 C 85.851562 127.578125 84.550781 126.941406 83.699219 125.855469 C 82.847656 124.769531 82.550781 123.355469 82.882812 122.007812 L 85.671875 110.863281 C 87.167969 104.863281 92.539062 100.675781 98.71875 100.675781 L 127.582031 100.675781 C 134.996094 100.675781 141.03125 106.710938 141.03125 114.128906 L 141.03125 123.09375 C 141.03125 125.570312 139.023438 127.578125 136.550781 127.578125 L 163.449219 127.578125 C 160.976562 127.578125 158.964844 125.570312 158.964844 123.09375 L 158.964844 114.128906 C 158.964844 106.710938 165 100.675781 172.417969 100.675781 L 201.28125 100.675781 C 207.460938 100.675781 212.832031 104.863281 214.328125 110.863281 L 217.117188 122.007812 C 217.457031 123.34375 217.152344 124.769531 216.300781 125.855469 C 215.449219 126.941406 214.148438 127.578125 212.769531 127.578125 L 235.183594 127.578125 C 237.660156 127.578125 239.667969 125.570312 239.667969 123.09375 L 239.667969 96.195312 C 239.667969 83.835938 229.609375 73.777344 217.25 73.777344 L 82.746094 73.777344 C 70.390625 73.777344 60.332031 83.835938 60.332031 96.195312 L 60.332031 123.09375 C 60.332031 125.570312 62.339844 127.578125 64.8125 127.578125 Z M 64.8125 127.578125 " fill-opacity="1" fill-rule="nonzero"/></g></svg>