<svg xmlns="http://www.w3.org/2000/svg" xmlns:xlink="http://www.w3.org/1999/xlink" width="400" zoomAndPan="magnify" viewBox="0 0 300 299.999988" height="400" preserveAspectRatio="xMidYMid meet" version="1.0"><defs><clipPath id="153c1ca8d7"><path d="M 96 68.476562 L 204 68.476562 L 204 153 L 96 153 Z M 96 68.476562 " clip-rule="nonzero"/></clipPath><clipPath id="1efd75d2be"><path d="M 81.316406 122 L 218.566406 122 L 218.566406 231.226562 L 81.316406 231.226562 Z M 81.316406 122 " clip-rule="nonzero"/></clipPath></defs><g clip-path="url(#153c1ca8d7)"><path fill="#fefefe" d="M 102.171875 127.960938 L 106.402344 150.957031 C 106.582031 151.941406 107.4375 152.65625 108.441406 152.65625 L 191.5 152.65625 C 192.5 152.65625 193.359375 151.941406 193.539062 150.957031 L 197.769531 127.960938 C 198.425781 124.394531 200.488281 121.414062 203.289062 119.457031 L 203.289062 85.035156 C 203.289062 75.964844 195.914062 68.582031 186.839844 68.582031 L 113.097656 68.582031 C 104.027344 68.582031 96.648438 75.964844 96.648438 85.035156 L 96.648438 119.457031 C 99.449219 121.414062 101.515625 124.394531 102.171875 127.960938 " fill-opacity="1" fill-rule="nonzero"/></g><g clip-path="url(#1efd75d2be)"><path fill="#fefefe" d="M 210.917969 122.65625 C 207.191406 122.65625 203.996094 125.316406 203.324219 128.980469 L 199.09375 151.980469 C 198.421875 155.644531 195.222656 158.304688 191.5 158.304688 L 108.441406 158.304688 C 104.714844 158.304688 101.523438 155.644531 100.847656 151.980469 L 96.617188 128.980469 C 95.945312 125.316406 92.75 122.65625 89.023438 122.65625 C 84.761719 122.65625 81.304688 126.117188 81.304688 130.378906 L 81.304688 172.085938 C 81.304688 175.753906 83.867188 178.808594 87.292969 179.597656 L 87.292969 231.367188 L 94.90625 231.367188 L 102.527344 179.808594 L 197.414062 179.808594 L 205.035156 231.367188 L 212.644531 231.367188 L 212.644531 179.597656 C 216.074219 178.808594 218.636719 175.753906 218.636719 172.085938 L 218.636719 130.378906 C 218.636719 126.117188 215.179688 122.65625 210.917969 122.65625 " fill-opacity="1" fill-rule="nonzero"/></g></svg>