<svg xmlns="http://www.w3.org/2000/svg" xmlns:xlink="http://www.w3.org/1999/xlink" width="400" zoomAndPan="magnify" viewBox="0 0 300 299.999988" height="400" preserveAspectRatio="xMidYMid meet" version="1.0"><path fill="#fefefe" d="M 149.988281 107.359375 L 190.195312 107.359375 C 191.535156 107.359375 192.617188 108.441406 192.617188 109.777344 L 192.617188 190.195312 C 192.617188 191.53125 191.535156 192.617188 190.195312 192.617188 L 149.988281 192.617188 L 149.988281 187.773438 L 187.773438 187.773438 L 187.773438 112.199219 L 149.988281 112.199219 Z M 109.777344 107.359375 L 149.988281 107.359375 L 149.988281 112.199219 L 112.203125 112.199219 L 112.203125 187.773438 L 149.988281 187.773438 L 149.988281 192.617188 L 109.777344 192.617188 C 108.441406 192.617188 107.359375 191.53125 107.359375 190.195312 L 107.359375 109.777344 C 107.359375 108.441406 108.441406 107.359375 109.777344 107.359375 " fill-opacity="1" fill-rule="nonzero"/><path fill="#fefefe" d="M 149.988281 91.996094 C 153.097656 91.996094 155.507812 93.597656 157.917969 95.199219 C 159.714844 96.394531 161.515625 97.589844 163.179688 97.589844 C 164.847656 97.589844 166.644531 96.394531 168.441406 95.199219 C 170.851562 93.597656 173.261719 91.996094 176.375 91.996094 C 179.476562 91.996094 181.820312 93.558594 184.203125 95.144531 C 185.992188 96.335938 187.804688 97.546875 189.632812 97.601562 C 191.027344 97.640625 193.101562 96.308594 195.121094 95.007812 C 199.09375 92.457031 202.921875 89.992188 206.453125 93.523438 C 209.980469 97.054688 207.519531 100.878906 204.964844 104.855469 C 203.667969 106.871094 202.332031 108.945312 202.375 110.339844 C 202.425781 112.167969 203.636719 113.984375 204.828125 115.773438 C 206.417969 118.152344 207.980469 120.5 207.980469 123.601562 C 207.980469 126.710938 206.378906 129.121094 204.777344 131.53125 C 203.578125 133.328125 202.382812 135.128906 202.382812 136.792969 C 202.382812 138.460938 203.578125 140.257812 204.777344 142.058594 C 206.378906 144.464844 207.980469 146.875 207.980469 149.988281 C 207.980469 153.097656 206.378906 155.507812 204.777344 157.917969 C 203.578125 159.714844 202.382812 161.515625 202.382812 163.179688 C 202.382812 164.847656 203.578125 166.644531 204.777344 168.441406 C 206.378906 170.851562 207.980469 173.261719 207.980469 176.375 C 207.980469 179.476562 206.417969 181.820312 204.828125 184.203125 C 203.636719 185.988281 202.425781 187.804688 202.375 189.632812 C 202.332031 191.027344 203.667969 193.101562 204.964844 195.121094 C 207.519531 199.09375 209.980469 202.921875 206.453125 206.449219 C 202.921875 209.980469 199.09375 207.519531 195.121094 204.964844 C 193.101562 203.667969 191.027344 202.332031 189.632812 202.375 C 187.804688 202.425781 185.992188 203.636719 184.203125 204.828125 C 181.820312 206.417969 179.476562 207.980469 176.375 207.980469 C 173.261719 207.980469 170.851562 206.378906 168.441406 204.773438 C 166.644531 203.578125 164.847656 202.382812 163.179688 202.382812 C 161.515625 202.382812 159.714844 203.578125 157.917969 204.773438 C 155.507812 206.378906 153.097656 207.980469 149.988281 207.980469 L 149.988281 203.136719 C 151.652344 203.136719 153.453125 201.941406 155.25 200.746094 C 157.660156 199.140625 160.070312 197.539062 163.179688 197.539062 C 166.292969 197.539062 168.703125 199.140625 171.109375 200.746094 C 172.910156 201.941406 174.707031 203.136719 176.375 203.136719 C 178.039062 203.136719 179.765625 201.988281 181.515625 200.816406 C 183.878906 199.242188 186.28125 197.640625 189.5 197.550781 C 192.394531 197.464844 195.097656 199.203125 197.730469 200.898438 C 200.035156 202.378906 202.25 203.804688 203.027344 203.027344 C 203.804688 202.25 202.378906 200.03125 200.898438 197.730469 C 199.203125 195.097656 197.464844 192.394531 197.550781 189.5 C 197.644531 186.277344 199.242188 183.878906 200.820312 181.515625 C 201.988281 179.765625 203.136719 178.039062 203.136719 176.375 C 203.136719 174.707031 201.941406 172.910156 200.746094 171.109375 C 199.144531 168.699219 197.539062 166.292969 197.539062 163.179688 C 197.539062 160.070312 199.144531 157.660156 200.746094 155.25 C 201.941406 153.453125 203.136719 151.652344 203.136719 149.988281 C 203.136719 148.320312 201.941406 146.523438 200.746094 144.726562 C 199.144531 142.316406 197.539062 139.90625 197.539062 136.792969 C 197.539062 133.683594 199.144531 131.273438 200.746094 128.863281 C 201.941406 127.066406 203.136719 125.269531 203.136719 123.601562 C 203.136719 121.9375 201.988281 120.210938 200.820312 118.457031 C 199.242188 116.09375 197.644531 113.695312 197.550781 110.472656 C 197.464844 107.578125 199.203125 104.875 200.898438 102.242188 C 202.378906 99.941406 203.804688 97.722656 203.027344 96.945312 C 202.25 96.171875 200.035156 97.597656 197.730469 99.078125 C 195.097656 100.769531 192.394531 102.507812 189.5 102.425781 C 186.28125 102.332031 183.878906 100.730469 181.515625 99.15625 C 179.765625 97.988281 178.039062 96.835938 176.375 96.835938 C 174.707031 96.835938 172.910156 98.035156 171.109375 99.230469 C 168.703125 100.832031 166.292969 102.433594 163.179688 102.433594 C 160.070312 102.433594 157.660156 100.832031 155.25 99.230469 C 153.453125 98.035156 151.652344 96.835938 149.988281 96.835938 Z M 93.523438 93.523438 C 97.054688 89.992188 100.878906 92.457031 104.855469 95.007812 C 106.871094 96.308594 108.945312 97.640625 110.34375 97.601562 C 112.167969 97.546875 113.984375 96.335938 115.773438 95.144531 C 118.152344 93.558594 120.5 91.996094 123.601562 91.996094 C 126.710938 91.996094 129.121094 93.597656 131.53125 95.199219 C 133.328125 96.394531 135.128906 97.589844 136.792969 97.589844 C 138.460938 97.589844 140.257812 96.394531 142.058594 95.199219 C 144.46875 93.597656 146.878906 91.996094 149.988281 91.996094 L 149.988281 96.835938 C 148.320312 96.835938 146.523438 98.035156 144.726562 99.230469 C 142.316406 100.832031 139.90625 102.433594 136.792969 102.433594 C 133.683594 102.433594 131.273438 100.832031 128.863281 99.230469 C 127.066406 98.035156 125.269531 96.835938 123.601562 96.835938 C 121.9375 96.835938 120.210938 97.988281 118.460938 99.15625 C 116.09375 100.730469 113.695312 102.332031 110.472656 102.425781 C 107.582031 102.507812 104.875 100.769531 102.246094 99.078125 C 99.941406 97.597656 97.722656 96.171875 96.949219 96.945312 C 96.171875 97.722656 97.597656 99.941406 99.078125 102.242188 C 100.769531 104.875 102.507812 107.578125 102.425781 110.472656 C 102.332031 113.695312 100.730469 116.09375 99.15625 118.457031 C 97.988281 120.210938 96.835938 121.9375 96.835938 123.601562 C 96.835938 125.269531 98.035156 127.066406 99.230469 128.863281 C 100.832031 131.273438 102.433594 133.683594 102.433594 136.792969 C 102.433594 139.90625 100.832031 142.316406 99.230469 144.726562 C 98.035156 146.523438 96.835938 148.320312 96.835938 149.988281 C 96.835938 151.652344 98.035156 153.453125 99.230469 155.25 C 100.832031 157.660156 102.433594 160.070312 102.433594 163.179688 C 102.433594 166.292969 100.832031 168.699219 99.230469 171.109375 C 98.035156 172.910156 96.835938 174.707031 96.835938 176.375 C 96.835938 178.039062 97.988281 179.765625 99.15625 181.515625 C 100.730469 183.878906 102.332031 186.277344 102.425781 189.5 C 102.507812 192.394531 100.769531 195.097656 99.078125 197.730469 C 97.597656 200.03125 96.171875 202.25 96.949219 203.027344 C 97.722656 203.804688 99.941406 202.378906 102.246094 200.898438 C 104.875 199.203125 107.582031 197.464844 110.472656 197.550781 C 113.695312 197.640625 116.09375 199.242188 118.460938 200.816406 C 120.210938 201.988281 121.9375 203.136719 123.601562 203.136719 C 125.269531 203.136719 127.066406 201.941406 128.863281 200.746094 C 131.273438 199.140625 133.683594 197.539062 136.792969 197.539062 C 139.90625 197.539062 142.316406 199.140625 144.726562 200.746094 C 146.523438 201.941406 148.320312 203.136719 149.988281 203.136719 L 149.988281 207.980469 C 146.878906 207.980469 144.46875 206.378906 142.058594 204.773438 C 140.257812 203.578125 138.460938 202.382812 136.792969 202.382812 C 135.128906 202.382812 133.328125 203.578125 131.53125 204.773438 C 129.121094 206.378906 126.710938 207.980469 123.601562 207.980469 C 120.5 207.980469 118.152344 206.417969 115.773438 204.828125 C 113.984375 203.636719 112.167969 202.425781 110.34375 202.375 C 108.945312 202.332031 106.871094 203.667969 104.855469 204.964844 C 100.878906 207.519531 97.054688 209.980469 93.523438 206.449219 C 89.996094 202.921875 92.457031 199.09375 95.007812 195.121094 C 96.308594 193.101562 97.640625 191.027344 97.601562 189.632812 C 97.550781 187.804688 96.339844 185.988281 95.144531 184.203125 C 93.558594 181.820312 91.996094 179.476562 91.996094 176.375 C 91.996094 173.261719 93.597656 170.851562 95.199219 168.441406 C 96.394531 166.644531 97.59375 164.847656 97.59375 163.179688 C 97.59375 161.515625 96.394531 159.714844 95.199219 157.917969 C 93.597656 155.507812 91.996094 153.097656 91.996094 149.988281 C 91.996094 146.875 93.597656 144.464844 95.199219 142.058594 C 96.394531 140.257812 97.59375 138.460938 97.59375 136.792969 C 97.59375 135.128906 96.394531 133.328125 95.199219 131.53125 C 93.597656 129.121094 91.996094 126.710938 91.996094 123.601562 C 91.996094 120.5 93.558594 118.152344 95.144531 115.773438 C 96.339844 113.984375 97.550781 112.167969 97.601562 110.339844 C 97.640625 108.945312 96.308594 106.871094 95.007812 104.855469 C 92.457031 100.878906 89.996094 97.054688 93.523438 93.523438 " fill-opacity="1" fill-rule="nonzero"/></svg>