<svg xmlns="http://www.w3.org/2000/svg" xmlns:xlink="http://www.w3.org/1999/xlink" width="400" zoomAndPan="magnify" viewBox="0 0 300 299.999988" height="400" preserveAspectRatio="xMidYMid meet" version="1.0"><defs><clipPath id="f08f45f000"><path d="M 78 89.976562 L 222 89.976562 L 222 209.976562 L 78 209.976562 Z M 78 89.976562 " clip-rule="nonzero"/></clipPath></defs><g clip-path="url(#f08f45f000)"><path fill="#fefefe" d="M 170.351562 190.226562 L 173.71875 203.671875 C 173.84375 204.195312 174.367188 204.59375 174.890625 204.59375 L 181.101562 204.59375 C 182.5 204.59375 183.523438 205.667969 183.523438 206.988281 C 183.523438 208.261719 182.449219 209.382812 181.128906 209.382812 L 118.871094 209.382812 C 117.523438 209.382812 116.476562 208.3125 116.476562 206.988281 C 116.476562 205.71875 117.546875 204.59375 118.894531 204.59375 L 125.105469 204.59375 C 125.628906 204.59375 126.152344 204.171875 126.277344 203.671875 L 129.644531 190.226562 L 85.394531 190.226562 C 81.40625 190.226562 78.164062 186.984375 78.164062 183.070312 L 78.164062 96.816406 C 78.164062 92.847656 81.355469 89.65625 85.394531 89.65625 L 214.601562 89.65625 C 218.59375 89.65625 221.835938 92.898438 221.835938 96.816406 L 221.835938 183.070312 C 221.835938 187.035156 218.644531 190.226562 214.601562 190.226562 Z M 165.363281 190.226562 L 134.632812 190.226562 L 131.042969 204.59375 L 168.957031 204.59375 Z M 82.953125 168.625 C 82.953125 169.972656 84.050781 171.070312 85.394531 171.070312 L 214.601562 171.070312 C 215.972656 171.070312 217.046875 169.972656 217.046875 168.625 L 217.046875 96.890625 C 217.046875 95.542969 215.949219 94.445312 214.601562 94.445312 L 85.394531 94.445312 C 84.023438 94.445312 82.953125 95.542969 82.953125 96.890625 Z M 150 185.4375 C 152.644531 185.4375 154.789062 183.292969 154.789062 180.648438 C 154.789062 178.003906 152.644531 175.859375 150 175.859375 C 147.355469 175.859375 145.210938 178.003906 145.210938 180.648438 C 145.210938 183.292969 147.355469 185.4375 150 185.4375 Z M 150 185.4375 " fill-opacity="1" fill-rule="evenodd"/></g></svg>