<svg xmlns="http://www.w3.org/2000/svg" xmlns:xlink="http://www.w3.org/1999/xlink" width="400" zoomAndPan="magnify" viewBox="0 0 300 299.999988" height="400" preserveAspectRatio="xMidYMid meet" version="1.0"><defs><clipPath id="8624a8398a"><path d="M 93.226562 74.394531 L 206.476562 74.394531 L 206.476562 225.894531 L 93.226562 225.894531 Z M 93.226562 74.394531 " clip-rule="nonzero"/></clipPath></defs><g clip-path="url(#8624a8398a)"><path fill="#fefefe" d="M 206.335938 90.441406 L 206.246094 90.300781 C 199.410156 80.0625 186.644531 75.550781 175.089844 78.738281 C 175.066406 78.679688 175.050781 78.621094 175.019531 78.566406 L 172.570312 74.90625 C 172.285156 74.472656 171.703125 74.359375 171.269531 74.644531 L 158.042969 83.480469 C 157.613281 83.765625 157.496094 84.351562 157.785156 84.78125 L 158.355469 85.636719 L 104.214844 121.796875 C 103.0625 120.601562 101.449219 119.855469 99.664062 119.855469 C 96.179688 119.855469 93.34375 122.691406 93.34375 126.175781 C 93.34375 129.660156 96.179688 132.496094 99.664062 132.496094 C 99.753906 132.496094 99.84375 132.488281 99.933594 132.484375 L 119.875 215.855469 C 107.835938 216.035156 97.59375 218.648438 94.148438 222.484375 C 93.390625 223.328125 93.390625 224.433594 94.152344 225.289062 C 94.328125 225.492188 94.585938 225.605469 94.851562 225.605469 L 147.542969 225.605469 C 147.808594 225.605469 148.066406 225.492188 148.242188 225.289062 C 149.003906 224.433594 149.003906 223.332031 148.246094 222.484375 C 144.777344 218.625 134.425781 216 122.285156 215.851562 L 102.21875 131.953125 C 104.433594 130.96875 105.984375 128.753906 105.984375 126.175781 C 105.984375 125.320312 105.8125 124.503906 105.503906 123.757812 L 159.660156 87.585938 L 160.230469 88.441406 C 160.265625 88.496094 160.308594 88.539062 160.355469 88.585938 C 152.988281 98.039062 152.273438 111.550781 159.105469 121.78125 L 159.253906 121.996094 C 159.4375 122.257812 159.730469 122.402344 160.027344 122.402344 C 160.207031 122.402344 160.386719 122.351562 160.546875 122.242188 L 206.117188 91.808594 C 206.546875 91.519531 206.617188 90.871094 206.335938 90.441406 Z M 100.953125 130.40625 C 100.851562 130.40625 100.75 130.394531 100.644531 130.417969 C 100.539062 130.445312 100.449219 130.5 100.359375 130.550781 C 100.132812 130.585938 99.902344 130.621094 99.664062 130.621094 C 97.210938 130.621094 95.21875 128.628906 95.21875 126.175781 C 95.21875 123.726562 97.210938 121.730469 99.664062 121.730469 C 102.113281 121.730469 104.109375 123.726562 104.109375 126.175781 C 104.109375 128.175781 102.773438 129.851562 100.953125 130.40625 Z M 99.664062 123.789062 C 98.347656 123.789062 97.277344 124.859375 97.277344 126.175781 C 97.277344 127.492188 98.347656 128.5625 99.664062 128.5625 C 100.980469 128.5625 102.050781 127.492188 102.050781 126.175781 C 102.050781 124.859375 100.980469 123.789062 99.664062 123.789062 Z M 99.664062 123.789062 " fill-opacity="1" fill-rule="nonzero"/></g></svg>