<svg xmlns="http://www.w3.org/2000/svg" xmlns:xlink="http://www.w3.org/1999/xlink" width="400" zoomAndPan="magnify" viewBox="0 0 300 299.999988" height="400" preserveAspectRatio="xMidYMid meet" version="1.0"><defs><clipPath id="d546bee9bd"><path d="M 69 194 L 81 194 L 81 209.699219 L 69 209.699219 Z M 69 194 " clip-rule="nonzero"/></clipPath><clipPath id="5777d1f5c8"><path d="M 219 194 L 231 194 L 231 209.699219 L 219 209.699219 Z M 219 194 " clip-rule="nonzero"/></clipPath><clipPath id="a839aa36ee"><path d="M 36.03125 123 L 264 123 L 264 190 L 36.03125 190 Z M 36.03125 123 " clip-rule="nonzero"/></clipPath><clipPath id="ea87eb4666"><path d="M 153 90.449219 L 224 90.449219 L 224 161 L 153 161 Z M 153 90.449219 " clip-rule="nonzero"/></clipPath><clipPath id="515bb638df"><path d="M 76 90.449219 L 149 90.449219 L 149 161 L 76 161 Z M 76 90.449219 " clip-rule="nonzero"/></clipPath></defs><g clip-path="url(#d546bee9bd)"><path fill="#fefefe" d="M 80.105469 194.96875 L 80.105469 204.121094 C 80.105469 207.125 77.671875 209.558594 74.667969 209.558594 C 71.664062 209.558594 69.230469 207.125 69.230469 204.121094 L 69.230469 194.128906 C 70.726562 194.6875 72.230469 194.96875 73.738281 194.96875 L 80.105469 194.96875 " fill-opacity="1" fill-rule="nonzero"/></g><g clip-path="url(#5777d1f5c8)"><path fill="#fefefe" d="M 230.757812 194.128906 L 230.757812 204.121094 C 230.757812 207.125 228.324219 209.558594 225.324219 209.558594 C 222.320312 209.558594 219.886719 207.125 219.886719 204.121094 L 219.886719 194.96875 L 226.253906 194.96875 C 227.761719 194.96875 229.261719 194.6875 230.757812 194.128906 " fill-opacity="1" fill-rule="nonzero"/></g><g clip-path="url(#a839aa36ee)"><path fill="#fefefe" d="M 263.839844 144.746094 C 263.839844 154.804688 257.007812 163.421875 247.230469 165.703125 C 246.363281 165.90625 245.652344 166.519531 245.324219 167.347656 C 245.300781 167.40625 243.003906 173.136719 239.308594 178.820312 C 236.742188 182.761719 233.09375 187.316406 229.140625 188.925781 C 228.191406 189.316406 227.222656 189.535156 226.253906 189.535156 L 73.738281 189.535156 C 72.8125 189.535156 71.890625 189.335938 70.984375 188.980469 C 66.996094 187.421875 63.308594 182.84375 60.726562 178.886719 C 57.019531 173.207031 54.691406 167.40625 54.667969 167.347656 C 54.339844 166.519531 53.625 165.90625 52.761719 165.703125 C 42.980469 163.421875 36.152344 154.804688 36.152344 144.746094 C 36.152344 132.878906 45.804688 123.222656 57.671875 123.222656 C 68.609375 123.222656 76.707031 129.835938 81.738281 142.890625 C 85.679688 153.117188 86.164062 163.566406 86.167969 163.667969 C 86.199219 164.457031 86.574219 165.195312 87.195312 165.6875 C 87.816406 166.175781 88.617188 166.375 89.394531 166.226562 C 89.652344 166.175781 115.585938 161.289062 149.996094 161.105469 C 184.402344 161.289062 210.339844 166.175781 210.59375 166.226562 C 211.371094 166.375 212.171875 166.175781 212.796875 165.6875 C 213.414062 165.195312 213.789062 164.457031 213.824219 163.667969 C 213.824219 163.566406 214.292969 153.230469 218.207031 143 C 223.238281 129.875 231.347656 123.222656 242.316406 123.222656 C 254.1875 123.222656 263.839844 132.878906 263.839844 144.746094 " fill-opacity="1" fill-rule="nonzero"/></g><g clip-path="url(#ea87eb4666)"><path fill="#fefefe" d="M 223.488281 102.15625 L 223.488281 124.949219 C 219.242188 128.8125 215.757812 134.207031 213.132812 141.054688 C 210.199219 148.714844 209.0625 156.285156 208.636719 160.371094 C 201.121094 159.136719 180.101562 156.097656 153.644531 155.707031 L 153.644531 90.457031 L 211.792969 90.457031 C 218.242188 90.457031 223.488281 95.703125 223.488281 102.15625 " fill-opacity="1" fill-rule="nonzero"/></g><g clip-path="url(#515bb638df)"><path fill="#fefefe" d="M 148.207031 90.457031 L 148.207031 155.683594 C 120.875 155.953125 99.046875 159.109375 91.355469 160.371094 C 90.925781 156.285156 89.789062 148.714844 86.859375 141.054688 C 84.238281 134.207031 80.75 128.8125 76.503906 124.949219 L 76.503906 102.15625 C 76.503906 95.703125 81.75 90.457031 88.199219 90.457031 L 148.207031 90.457031 " fill-opacity="1" fill-rule="nonzero"/></g></svg>