<svg xmlns="http://www.w3.org/2000/svg" xmlns:xlink="http://www.w3.org/1999/xlink" width="400" zoomAndPan="magnify" viewBox="0 0 300 299.999988" height="400" preserveAspectRatio="xMidYMid meet" version="1.0"><defs><clipPath id="36a050d5ad"><path d="M 69.550781 84.03125 L 149 84.03125 L 149 203 L 69.550781 203 Z M 69.550781 84.03125 " clip-rule="nonzero"/></clipPath><clipPath id="1e55da5c1b"><path d="M 151 84.03125 L 230.800781 84.03125 L 230.800781 203 L 151 203 Z M 151 84.03125 " clip-rule="nonzero"/></clipPath></defs><path fill="#fefefe" d="M 77.382812 206.550781 L 77.382812 213.050781 C 77.382812 214.648438 78.660156 215.925781 80.257812 215.925781 L 219.6875 215.925781 C 221.285156 215.925781 222.5625 214.648438 222.5625 213.050781 L 222.5625 206.550781 Z M 77.382812 206.550781 " fill-opacity="1" fill-rule="nonzero"/><g clip-path="url(#36a050d5ad)"><path fill="#fefefe" d="M 72.425781 84.0625 C 70.828125 84.0625 69.550781 85.34375 69.550781 86.941406 L 69.550781 199.570312 C 69.550781 201.167969 70.828125 202.445312 72.425781 202.445312 L 148.558594 202.445312 L 148.558594 84.0625 Z M 136.253906 145.972656 C 133.164062 145.972656 130.660156 143.46875 130.660156 140.378906 C 130.660156 137.289062 133.164062 134.785156 136.253906 134.785156 C 139.34375 134.785156 141.847656 137.289062 141.847656 140.378906 C 141.847656 143.46875 139.34375 145.972656 136.253906 145.972656 Z M 136.253906 145.972656 " fill-opacity="1" fill-rule="nonzero"/></g><g clip-path="url(#1e55da5c1b)"><path fill="#fefefe" d="M 227.570312 84.0625 L 151.4375 84.0625 L 151.4375 202.5 L 227.570312 202.5 C 229.167969 202.5 230.449219 201.222656 230.449219 199.625 L 230.449219 86.996094 C 230.449219 85.394531 229.167969 84.0625 227.570312 84.0625 Z M 163.742188 145.972656 C 160.652344 145.972656 158.148438 143.46875 158.148438 140.378906 C 158.148438 137.289062 160.652344 134.785156 163.742188 134.785156 C 166.835938 134.785156 169.339844 137.289062 169.339844 140.378906 C 169.339844 143.46875 166.835938 145.972656 163.742188 145.972656 Z M 163.742188 145.972656 " fill-opacity="1" fill-rule="nonzero"/></g></svg>