<svg xmlns="http://www.w3.org/2000/svg" xmlns:xlink="http://www.w3.org/1999/xlink" width="400" zoomAndPan="magnify" viewBox="0 0 300 299.999988" height="400" preserveAspectRatio="xMidYMid meet" version="1.0"><defs><clipPath id="3b770e14ce"><path d="M 96 139 L 110 139 L 110 211.328125 L 96 211.328125 Z M 96 139 " clip-rule="nonzero"/></clipPath><clipPath id="59ed1e7c9b"><path d="M 189 139 L 203 139 L 203 211.328125 L 189 211.328125 Z M 189 139 " clip-rule="nonzero"/></clipPath><clipPath id="8715376c12"><path d="M 70 169 L 81 169 L 81 211.328125 L 70 211.328125 Z M 70 169 " clip-rule="nonzero"/></clipPath><clipPath id="f8ec2ed7ec"><path d="M 43 169 L 54 169 L 54 211.328125 L 43 211.328125 Z M 43 169 " clip-rule="nonzero"/></clipPath><clipPath id="9ee512d098"><path d="M 219 169 L 230 169 L 230 211.328125 L 219 211.328125 Z M 219 169 " clip-rule="nonzero"/></clipPath><clipPath id="b09e954e28"><path d="M 246 169 L 257 169 L 257 211.328125 L 246 211.328125 Z M 246 169 " clip-rule="nonzero"/></clipPath></defs><g clip-path="url(#3b770e14ce)"><path fill="#fefefe" d="M 109.460938 139.773438 L 96.421875 139.773438 L 97.0625 211.464844 L 101.460938 211.464844 Z M 109.460938 139.773438 " fill-opacity="1" fill-rule="nonzero"/></g><path fill="#fefefe" d="M 85.445312 129.21875 L 213.976562 129.21875 L 213.976562 138.253906 L 85.445312 138.253906 Z M 85.445312 129.21875 " fill-opacity="1" fill-rule="nonzero"/><g clip-path="url(#59ed1e7c9b)"><path fill="#fefefe" d="M 189.910156 139.773438 L 202.945312 139.773438 L 202.308594 211.464844 L 197.90625 211.464844 Z M 189.910156 139.773438 " fill-opacity="1" fill-rule="nonzero"/></g><path fill="#fefefe" d="M 44.765625 97.574219 C 41.882812 97.730469 45.457031 96.617188 38.128906 99.476562 C 32.414062 101.707031 36.054688 145.84375 36.441406 156.929688 C 39.054688 155.554688 41.753906 155.101562 44.425781 154.96875 C 47.273438 154.921875 50.53125 155.949219 53.316406 157.441406 C 46.757812 147.035156 46.949219 141.824219 44.769531 97.574219 Z M 44.765625 97.574219 " fill-opacity="1" fill-rule="nonzero"/><path fill="#fefefe" d="M 38.640625 154.765625 C 52.558594 150.484375 74.625 150.695312 85.71875 154.765625 C 90.695312 156.589844 85.71875 167.167969 85.71875 167.167969 L 38.640625 167.167969 C 38.640625 167.167969 33.515625 156.339844 38.640625 154.765625 Z M 38.640625 154.765625 " fill-opacity="1" fill-rule="nonzero"/><g clip-path="url(#8715376c12)"><path fill="#fefefe" d="M 70.519531 169.046875 L 80.992188 169.046875 L 80.480469 211.464844 L 76.945312 211.464844 Z M 70.519531 169.046875 " fill-opacity="1" fill-rule="nonzero"/></g><g clip-path="url(#f8ec2ed7ec)"><path fill="#fefefe" d="M 53.777344 169.046875 L 43.300781 169.046875 L 43.816406 211.464844 L 47.351562 211.464844 Z M 53.777344 169.046875 " fill-opacity="1" fill-rule="nonzero"/></g><path fill="#fefefe" d="M 255.246094 97.574219 C 258.132812 97.730469 254.558594 96.617188 261.882812 99.476562 C 267.601562 101.707031 263.957031 145.84375 263.574219 156.929688 C 260.957031 155.554688 258.257812 155.101562 255.589844 154.96875 C 252.742188 154.921875 249.480469 155.949219 246.695312 157.441406 C 253.257812 147.035156 253.066406 141.824219 255.246094 97.574219 Z M 255.246094 97.574219 " fill-opacity="1" fill-rule="nonzero"/><path fill="#fefefe" d="M 261.371094 154.765625 C 247.457031 150.484375 225.390625 150.695312 214.292969 154.765625 C 209.320312 156.589844 214.292969 167.167969 214.292969 167.167969 L 261.371094 167.167969 C 261.371094 167.167969 266.496094 156.339844 261.371094 154.765625 Z M 261.371094 154.765625 " fill-opacity="1" fill-rule="nonzero"/><g clip-path="url(#9ee512d098)"><path fill="#fefefe" d="M 229.496094 169.046875 L 219.019531 169.046875 L 219.535156 211.464844 L 223.070312 211.464844 Z M 229.496094 169.046875 " fill-opacity="1" fill-rule="nonzero"/></g><g clip-path="url(#b09e954e28)"><path fill="#fefefe" d="M 246.238281 169.046875 L 256.710938 169.046875 L 256.199219 211.464844 L 252.664062 211.464844 Z M 246.238281 169.046875 " fill-opacity="1" fill-rule="nonzero"/></g></svg>